<?xml version="1.0" encoding="utf-8"?>
<!-- Generator: Adobe Illustrator 19.1.0, SVG Export Plug-In . SVG Version: 6.00 Build 0)  -->
<svg version="1.1" id="Layer_1" xmlns="http://www.w3.org/2000/svg" xmlns:xlink="http://www.w3.org/1999/xlink" x="0px" y="0px"
	 viewBox="0 0 144 107" enable-background="new 0 0 144 107" xml:space="preserve">
<metadata><?xpacket begin="﻿" id="W5M0MpCehiHzreSzNTczkc9d"?>
<x:xmpmeta xmlns:x="adobe:ns:meta/" x:xmptk="Adobe XMP Core 5.6-c067 79.157747, 2015/03/30-23:40:42        ">
   <rdf:RDF xmlns:rdf="http://www.w3.org/1999/02/22-rdf-syntax-ns#">
      <rdf:Description rdf:about=""/>
   </rdf:RDF>
</x:xmpmeta>
                                                                                                    
                                                                                                    
                                                                                                    
                                                                                                    
                                                                                                    
                                                                                                    
                                                                                                    
                                                                                                    
                                                                                                    
                                                                                                    
                                                                                                    
                                                                                                    
                                                                                                    
                                                                                                    
                                                                                                    
                                                                                                    
                                                                                                    
                                                                                                    
                                                                                                    
                                                                                                    
                           
<?xpacket end="w"?></metadata>
<path fill="#FFFFFF" d="M60.984,106.802h-1.272l-2.105-6.35h1.227l1.54,4.845l1.532-4.845h1.164L60.984,106.802z M71.955,101.499
	v1.702h2.884v1.048h-2.884v2.553H70.8v-6.35h4.389v1.048H71.955z M86.419,106.802l-1.424-2.311l-1.424,2.311h-1.245l1.997-3.233
	l-1.979-3.117h1.263l1.424,2.221l1.379-2.221h1.254l-1.953,3.126l1.979,3.224H86.419z M108.898,20.963L108.898,20.963
	L108.898,20.963l-0.004,0.002L72.593,41.927L49.874,28.81l22.717-13.117l0-15.693l0,0v0l-0.038,0.022L36.283,20.964v0.826
	l12.16,7.021l-12.16,7.021v0.826l36.31,20.964l36.305-20.964L108.898,20.963z M36.999,21.377l34.88-20.14v14.042L49.159,28.397
	L36.999,21.377z M72.593,56.795L36.999,36.244l12.16-7.021l23.434,13.53L108.187,22.2v14.042L72.593,56.795z M2.418,89.733
	c-0.609,0-1.236-0.251-1.675-0.69C0.063,88.353,0,87.341,0,86.437s0.063-1.908,0.743-2.597c0.439-0.439,1.066-0.69,1.675-0.69
	c1.263,0,2.159,0.887,2.257,2.06H4.192c-0.081-0.94-0.77-1.603-1.773-1.603c-0.564,0-0.994,0.197-1.334,0.546
	c-0.573,0.591-0.6,1.523-0.6,2.284c0,0.761,0.036,1.702,0.609,2.293c0.349,0.358,0.797,0.546,1.325,0.546
	c1.003,0,1.693-0.663,1.773-1.603h0.484C4.577,88.846,3.681,89.733,2.418,89.733z M17.025,89.616v-3.117h-3.547v3.117h-0.466v-6.35
	h0.466v2.776h3.547v-2.776h0.466v6.35H17.025z M26.41,89.616v-6.35h4.066v0.448h-3.591v2.329h3.162v0.448h-3.162v2.678h3.591v0.448
	H26.41z M42.057,86.795l1.29,2.821h-0.51l-1.245-2.705h-2.212v2.705h-0.466v-6.35h2.32c1.388,0,2.14,0.725,2.14,1.827
	C43.373,85.926,42.854,86.58,42.057,86.795z M41.233,83.705h-1.854v2.777h1.854c1.048,0,1.657-0.484,1.657-1.388
	C42.889,84.189,42.28,83.705,41.233,83.705z M54.917,86.795l1.29,2.821h-0.51l-1.245-2.705h-2.212v2.705h-0.466v-6.35h2.32
	c1.388,0,2.14,0.725,2.14,1.827C56.233,85.926,55.714,86.58,54.917,86.795z M54.093,83.705h-1.854v2.777h1.854
	c1.048,0,1.657-0.484,1.657-1.388C55.75,84.189,55.141,83.705,54.093,83.705z M66.156,87.099v2.517h-0.457v-2.517l-2.194-3.833
	h0.501l1.935,3.377l1.935-3.377h0.475L66.156,87.099z M78.068,89.733c-0.609,0-1.236-0.251-1.675-0.69
	c-0.681-0.69-0.743-1.702-0.743-2.606s0.063-1.908,0.743-2.597c0.439-0.439,1.066-0.69,1.675-0.69c1.263,0,2.159,0.887,2.257,2.06
	h-0.484c-0.081-0.94-0.77-1.603-1.773-1.603c-0.564,0-0.994,0.197-1.335,0.546c-0.573,0.591-0.6,1.523-0.6,2.284
	c0,0.761,0.036,1.702,0.609,2.293c0.349,0.358,0.797,0.546,1.326,0.546c1.003,0,1.693-0.663,1.773-1.603h0.484
	C80.226,88.846,79.33,89.733,78.068,89.733z M92.674,89.616v-3.117h-3.547v3.117h-0.466v-6.35h0.466v2.776h3.547v-2.776h0.466v6.35
	H92.674z M102.06,89.616v-6.35h4.066v0.448h-3.592v2.329h3.162v0.448h-3.162v2.678h3.592v0.448H102.06z M117.706,86.795l1.29,2.821
	h-0.511l-1.245-2.705h-2.212v2.705h-0.466v-6.35h2.32c1.388,0,2.141,0.725,2.141,1.827C119.022,85.926,118.503,86.58,117.706,86.795
	z M116.882,83.705h-1.854v2.777h1.854c1.048,0,1.657-0.484,1.657-1.388C118.539,84.189,117.93,83.705,116.882,83.705z
	 M130.566,86.795l1.29,2.821h-0.511l-1.245-2.705h-2.212v2.705h-0.466v-6.35h2.32c1.388,0,2.141,0.725,2.141,1.827
	C131.883,85.926,131.363,86.58,130.566,86.795z M129.742,83.705h-1.854v2.777h1.854c1.048,0,1.657-0.484,1.657-1.388
	C131.399,84.189,130.79,83.705,129.742,83.705z M141.805,87.099v2.517h-0.457v-2.517l-2.194-3.833h0.502l1.934,3.377l1.934-3.377
	H144L141.805,87.099z"/>
</svg>
